999
dxfrw 0.6.3
  0
SECTION
  2
HEADER
  9
$ACADVER
  1
AC1021
  9
$DWGCODEPAGE
  3
ANSI_1252
  9
$INSBASE
 10
0
 20
0
 30
0
  9
$EXTMIN
 10
-19.8125
 20
-22.81250000000039
 30
0
  9
$EXTMAX
 10
182.5
 20
144.8125
 30
0
  9
$LIMMIN
 10
0
 20
0
  9
$LIMMAX
 10
420
 20
297
  9
$ORTHOMODE
 70
    0
  9
$REGENMODE
 70
    1
  9
$FILLMODE
 70
    1
  9
$QTEXTMODE
 70
    0
  9
$MIRRTEXT
 70
    0
  9
$LTSCALE
 40
1
  9
$ATTMODE
 70
    0
  9
$TEXTSIZE
 40
2.5
  9
$TRACEWID
 40
15.68
  9
$TEXTSTYLE
  7
STANDARD
  9
$CLAYER
  8
dimensions
  9
$CELTYPE
  6
BYLAYER
  9
$CECOLOR
 62
  256
  9
$CELTSCALE
 40
1
  9
$DISPSILH
 70
    0
  9
$DIMSCALE
 40
2.5
  9
$DIMASZ
 40
2.5
  9
$DIMEXO
 40
0.625
  9
$DIMDLI
 40
3.75
  9
$DIMRND
 40
0
  9
$DIMDLE
 40
0
  9
$DIMEXE
 40
1.25
  9
$DIMTP
 40
0
  9
$DIMTM
 40
0
  9
$DIMTXT
 40
2.5
  9
$DIMCEN
 40
2.5
  9
$DIMTSZ
 40
0
  9
$DIMTOL
 70
    0
  9
$DIMLIM
 70
    0
  9
$DIMTIH
 70
    0
  9
$DIMTOH
 70
    0
  9
$DIMSE1
 70
    0
  9
$DIMSE2
 70
    0
  9
$DIMTAD
 70
    1
  9
$DIMZIN
 70
    8
  9
$DIMBLK
  1

  9
$DIMASO
 70
    1
  9
$DIMSHO
 70
    1
  9
$DIMPOST
  1

  9
$DIMAPOST
  1

  9
$DIMALT
 70
    0
  9
$DIMALTD
 70
    3
  9
$DIMALTF
 40
0.03937
  9
$DIMLFAC
 40
1
  9
$DIMTOFL
 70
    1
  9
$DIMTVP
 40
0
  9
$DIMTIX
 70
    0
  9
$DIMSOXD
 70
    0
  9
$DIMSAH
 70
    0
  9
$DIMBLK1
  1

  9
$DIMBLK2
  1

  9
$DIMSTYLE
  2
STANDARD
  9
$DIMCLRD
 70
    0
  9
$DIMCLRE
 70
    0
  9
$DIMCLRT
 70
    0
  9
$DIMTFAC
 40
1
  9
$DIMGAP
 40
0.625
  9
$DIMJUST
 70
    0
  9
$DIMSD1
 70
    0
  9
$DIMSD2
 70
    0
  9
$DIMTOLJ
 70
    0
  9
$DIMTZIN
 70
    8
  9
$DIMALTZ
 70
    0
  9
$DIMALTTZ
 70
    0
  9
$DIMUPT
 70
    0
  9
$DIMDEC
 70
    2
  9
$DIMTDEC
 70
    2
  9
$DIMALTU
 70
    2
  9
$DIMALTTD
 70
    3
  9
$DIMTXSTY
  7
STANDARD
  9
$DIMAUNIT
 70
    0
  9
$DIMADEC
 70
    0
  9
$DIMALTRND
 40
0
  9
$DIMAZIN
 70
    0
  9
$DIMDSEP
 70
   44
  9
$DIMATFIT
 70
    3
  9
$DIMFRAC
 70
    0
  9
$DIMLDRBLK
  1
STANDARD
  9
$DIMLUNIT
 70
    2
  9
$DIMLWD
 70
   -2
  9
$DIMLWE
 70
   -2
  9
$DIMTMOVE
 70
    0
  9
$DIMFXL
 40
1
  9
$DIMFXLON
 70
    0
  9
$DIMJOGANG
 40
0.7854
  9
$DIMTFILL
 70
    0
  9
$DIMTFILLCLR
 70
    0
  9
$DIMARCSYM
 70
    0
  9
$DIMLTYPE
  6

  9
$DIMLTEX1
  6

  9
$DIMLTEX2
  6

  9
$LUNITS
 70
    2
  9
$LUPREC
 70
    4
  9
$SKETCHINC
 40
1
  9
$FILLETRAD
 40
0
  9
$AUNITS
 70
    0
  9
$AUPREC
 70
    2
  9
$MENU
  1
.
  9
$ELEVATION
 40
0
  9
$PELEVATION
 40
0
  9
$THICKNESS
 40
0
  9
$LIMCHECK
 70
    0
  9
$CHAMFERA
 40
0
  9
$CHAMFERB
 40
0
  9
$CHAMFERC
 40
0
  9
$CHAMFERD
 40
0
  9
$SKPOLY
 70
    0
  9
$USRTIMER
 70
    1
  9
$ANGBASE
 50
0
  9
$ANGDIR
 70
    0
  9
$PDMODE
 70
   34
  9
$PDSIZE
 40
0
  9
$PLINEWID
 40
0
  9
$SPLFRAME
 70
    0
  9
$SPLINETYPE
 70
    2
  9
$SPLINESEGS
 70
    8
  9
$HANDSEED
  5
20000
  9
$SURFTAB1
 70
    6
  9
$SURFTAB2
 70
    6
  9
$SURFTYPE
 70
    6
  9
$SURFU
 70
    6
  9
$SURFV
 70
    6
  9
$UCSBASE
  2

  9
$UCSNAME
  2

  9
$UCSORG
 10
0
 20
0
 30
0
  9
$UCSXDIR
 10
1
 20
0
 30
0
  9
$UCSYDIR
 10
0
 20
1
 30
0
  9
$UCSORTHOREF
  2

  9
$UCSORTHOVIEW
 70
    0
  9
$UCSORGTOP
 10
0
 20
0
 30
0
  9
$UCSORGBOTTOM
 10
0
 20
0
 30
0
  9
$UCSORGLEFT
 10
0
 20
0
 30
0
  9
$UCSORGRIGHT
 10
0
 20
0
 30
0
  9
$UCSORGFRONT
 10
0
 20
0
 30
0
  9
$UCSORGBACK
 10
0
 20
0
 30
0
  9
$PUCSBASE
  2

  9
$PUCSNAME
  2

  9
$PUCSORG
 10
0
 20
0
 30
0
  9
$PUCSXDIR
 10
1
 20
0
 30
0
  9
$PUCSYDIR
 10
0
 20
1
 30
0
  9
$PUCSORTHOREF
  2

  9
$PUCSORTHOVIEW
 70
    0
  9
$PUCSORGTOP
 10
0
 20
0
 30
0
  9
$PUCSORGBOTTOM
 10
0
 20
0
 30
0
  9
$PUCSORGLEFT
 10
0
 20
0
 30
0
  9
$PUCSORGRIGHT
 10
0
 20
0
 30
0
  9
$PUCSORGFRONT
 10
0
 20
0
 30
0
  9
$PUCSORGBACK
 10
0
 20
0
 30
0
  9
$USERI1
 70
    0
  9
$USERI2
 70
    0
  9
$USERI3
 70
    0
  9
$USERI4
 70
    0
  9
$USERI5
 70
    0
  9
$USERR1
 40
0
  9
$USERR2
 40
0
  9
$USERR3
 40
0
  9
$USERR4
 40
0
  9
$USERR5
 40
0
  9
$WORLDVIEW
 70
    1
  9
$SHADEDGE
 70
    3
  9
$SHADEDIF
 70
   70
  9
$TILEMODE
 70
    1
  9
$MAXACTVP
 70
   64
  9
$PINSBASE
 10
0
 20
0
 30
0
  9
$PLIMCHECK
 70
    0
  9
$PEXTMIN
 10
0
 20
0
 30
0
  9
$PEXTMAX
 10
0
 20
0
 30
0
  9
$GRIDMODE
 70
    1
  9
$SNAPSTYLE
 70
    0
  9
$PLIMMIN
 10
0
 20
0
  9
$PLIMMAX
 10
279.4
 20
215.9
  9
$UNITMODE
 70
    0
  9
$VISRETAIN
 70
    1
  9
$PLINEGEN
 70
    0
  9
$PSLTSCALE
 70
    1
  9
$TREEDEPTH
 70
 3020
  9
$CMLSTYLE
  2
Standard
  9
$CMLJUST
 70
    0
  9
$CMLSCALE
 40
20
  9
$PROXYGRAPHICS
 70
    1
  9
$MEASUREMENT
 70
    1
  9
$CELWEIGHT
370
   -1
  9
$ENDCAPS
280
    0
  9
$JOINSTYLE
280
    0
  9
$LWDISPLAY
290
    0
  9
$INSUNITS
 70
    4
  9
$HYPERLINKBASE
  1

  9
$STYLESHEET
  1

  9
$XEDIT
290
    1
  9
$CEPSNTYPE
380
    0
  9
$PSTYLEMODE
290
    1
  9
$EXTNAMES
290
    1
  9
$PSVPSCALE
 40
1
  9
$OLESTARTUP
290
    0
  9
$SORTENTS
280
  127
  9
$INDEXCTL
280
    0
  9
$HIDETEXT
280
    1
  9
$XCLIPFRAME
290
    0
  9
$HALOGAP
280
    0
  9
$OBSCOLOR
 70
  257
  9
$OBSLTYPE
280
    0
  9
$INTERSECTIONDISPLAY
280
    0
  9
$INTERSECTIONCOLOR
 70
  257
  9
$DIMASSOC
280
    1
  9
$PROJECTNAME
  1

  9
$CAMERADISPLAY
290
    0
  9
$LENSLENGTH
 40
50
  9
$CAMERAHEIGHT
 40
0
  9
$STEPSPERSEC
 40
2
  9
$STEPSIZE
 40
50
  9
$3DDWFPREC
 40
2
  9
$PSOLWIDTH
 40
5
  9
$PSOLHEIGHT
 40
80
  9
$LOFTANG1
 40
1.570796326794897
  9
$LOFTANG2
 40
1.570796326794897
  9
$LOFTMAG1
 40
0
  9
$LOFTMAG2
 40
0
  9
$LOFTPARAM
 70
    7
  9
$LOFTNORMALS
280
    1
  9
$LATITUDE
 40
1
  9
$LONGITUDE
 40
1
  9
$NORTHDIRECTION
 40
0
  9
$TIMEZONE
 70
-8000
  9
$LIGHTGLYPHDISPLAY
280
    1
  9
$TILEMODELIGHTSYNCH
280
    1
  9
$SOLIDHIST
280
    1
  9
$SHOWHIST
280
    1
  9
$DWFFRAME
280
    2
  9
$DGNFRAME
280
    0
  9
$REALWORLDSCALE
290
    1
  9
$INTERFERECOLOR
 62
    1
  9
$CSHADOW
280
    0
  9
$SHADOWPLANELOCATION
 40
0
  0
ENDSEC
  0
SECTION
  2
CLASSES
  0
ENDSEC
  0
SECTION
  2
TABLES
  0
TABLE
  2
VPORT
  5
8
330
0
100
AcDbSymbolTable
 70
    1
  0
VPORT
  5
31
330
2
100
AcDbSymbolTableRecord
100
AcDbViewportTableRecord
  2
*ACTIVE
 70
    0
 10
0
 20
0
 11
1
 21
1
 12
200.9765625000132
 22
108.2031250000071
 13
0
 23
0
 14
10
 24
10
 15
10
 25
10
 16
0
 26
0
 36
1
 17
0
 27
0
 37
0
 40
330.8593750000217
 41
1.84887839433294
 42
50
 43
0
 44
0
 50
0
 51
0
 71
    0
 72
  100
 73
    1
 74
    3
 75
    0
 76
    1
 77
    0
 78
    0
281
    0
 65
    1
110
0
120
0
130
0
111
1
121
0
131
0
112
0
122
1
132
0
 79
    0
146
0
348
10020
 60
    7
 61
    5
292
1
282
    1
141
0
142
0
 63
  250
421
3358443
  0
ENDTAB
  0
TABLE
  2
LTYPE
  5
5
330
0
100
AcDbSymbolTable
 70
    4
  0
LTYPE
  5
14
330
5
100
AcDbSymbolTableRecord
100
AcDbLinetypeTableRecord
  2
ByBlock
 70
    0
  3

 72
   65
 73
    0
 40
0
  0
LTYPE
  5
15
330
5
100
AcDbSymbolTableRecord
100
AcDbLinetypeTableRecord
  2
ByLayer
 70
    0
  3

 72
   65
 73
    0
 40
0
  0
LTYPE
  5
16
330
5
100
AcDbSymbolTableRecord
100
AcDbLinetypeTableRecord
  2
Continuous
 70
    0
  3
Solid line
 72
   65
 73
    0
 40
0
  0
LTYPE
  5
32
330
5
100
AcDbSymbolTableRecord
100
AcDbLinetypeTableRecord
  2
DOT
 70
    0
  3
Dot . . . . . . . . . . . . . . . . . . . . . .
 72
   65
 73
    2
 40
6.35
 49
0
 74
    0
 49
-6.35
 74
    0
  0
LTYPE
  5
33
330
5
100
AcDbSymbolTableRecord
100
AcDbLinetypeTableRecord
  2
DOTTINY
 70
    0
  3
Dot (.15x) .....................................
 72
   65
 73
    2
 40
0.9525
 49
0
 74
    0
 49
-0.9525
 74
    0
  0
LTYPE
  5
34
330
5
100
AcDbSymbolTableRecord
100
AcDbLinetypeTableRecord
  2
DOT2
 70
    0
  3
Dot (.5x) .....................................
 72
   65
 73
    2
 40
3.175
 49
0
 74
    0
 49
-3.175
 74
    0
  0
LTYPE
  5
35
330
5
100
AcDbSymbolTableRecord
100
AcDbLinetypeTableRecord
  2
DOTX2
 70
    0
  3
Dot (2x) .  .  .  .  .  .  .  .  .  .  .  .  .
 72
   65
 73
    2
 40
12.7
 49
0
 74
    0
 49
-12.7
 74
    0
  0
LTYPE
  5
36
330
5
100
AcDbSymbolTableRecord
100
AcDbLinetypeTableRecord
  2
DASHED
 70
    0
  3
Dashed _ _ _ _ _ _ _ _ _ _ _ _ _ _ _ _ _
 72
   65
 73
    2
 40
19.05
 49
12.7
 74
    0
 49
-6.35
 74
    0
  0
LTYPE
  5
37
330
5
100
AcDbSymbolTableRecord
100
AcDbLinetypeTableRecord
  2
DASHEDTINY
 70
    0
  3
Dashed (.15x) _ _ _ _ _ _ _ _ _ _ _ _ _ _ _ _ _
 72
   65
 73
    2
 40
2.8575
 49
1.905
 74
    0
 49
-0.9525
 74
    0
  0
LTYPE
  5
38
330
5
100
AcDbSymbolTableRecord
100
AcDbLinetypeTableRecord
  2
DASHED2
 70
    0
  3
Dashed (.5x) _ _ _ _ _ _ _ _ _ _ _ _ _ _ _ _ _
 72
   65
 73
    2
 40
9.524999999999999
 49
6.35
 74
    0
 49
-3.175
 74
    0
  0
LTYPE
  5
39
330
5
100
AcDbSymbolTableRecord
100
AcDbLinetypeTableRecord
  2
DASHEDX2
 70
    0
  3
Dashed (2x) ____  ____  ____  ____  ____  ___
 72
   65
 73
    2
 40
38.09999999999999
 49
25.4
 74
    0
 49
-12.7
 74
    0
  0
LTYPE
  5
3A
330
5
100
AcDbSymbolTableRecord
100
AcDbLinetypeTableRecord
  2
DASHDOT
 70
    0
  3
Dash dot __ . __ . __ . __ . __ . __ . __ . __
 72
   65
 73
    4
 40
25.4
 49
12.7
 74
    0
 49
-6.35
 74
    0
 49
0
 74
    0
 49
-6.35
 74
    0
  0
LTYPE
  5
3B
330
5
100
AcDbSymbolTableRecord
100
AcDbLinetypeTableRecord
  2
DASHDOTTINY
 70
    0
  3
Dash dot (.15x) _._._._._._._._._._._._._._._.
 72
   65
 73
    4
 40
3.81
 49
1.905
 74
    0
 49
-0.9525
 74
    0
 49
0
 74
    0
 49
-0.9525
 74
    0
  0
LTYPE
  5
3C
330
5
100
AcDbSymbolTableRecord
100
AcDbLinetypeTableRecord
  2
DASHDOT2
 70
    0
  3
Dash dot (.5x) _._._._._._._._._._._._._._._.
 72
   65
 73
    4
 40
12.7
 49
6.35
 74
    0
 49
-3.175
 74
    0
 49
0
 74
    0
 49
-3.175
 74
    0
  0
LTYPE
  5
3D
330
5
100
AcDbSymbolTableRecord
100
AcDbLinetypeTableRecord
  2
DASHDOTX2
 70
    0
  3
Dash dot (2x) ____  .  ____  .  ____  .  ___
 72
   65
 73
    4
 40
50.8
 49
25.4
 74
    0
 49
-12.7
 74
    0
 49
0
 74
    0
 49
-12.7
 74
    0
  0
LTYPE
  5
3E
330
5
100
AcDbSymbolTableRecord
100
AcDbLinetypeTableRecord
  2
DIVIDE
 70
    0
  3
Divide ____ . . ____ . . ____ . . ____ . . ____
 72
   65
 73
    6
 40
31.75
 49
12.7
 74
    0
 49
-6.35
 74
    0
 49
0
 74
    0
 49
-6.35
 74
    0
 49
0
 74
    0
 49
-6.35
 74
    0
  0
LTYPE
  5
3F
330
5
100
AcDbSymbolTableRecord
100
AcDbLinetypeTableRecord
  2
DIVIDETINY
 70
    0
  3
Divide (.15x) __..__..__..__..__..__..__..__.._
 72
   65
 73
    6
 40
4.7625
 49
1.905
 74
    0
 49
-0.9525
 74
    0
 49
0
 74
    0
 49
-0.9525
 74
    0
 49
0
 74
    0
 49
-0.9525
 74
    0
  0
LTYPE
  5
40
330
5
100
AcDbSymbolTableRecord
100
AcDbLinetypeTableRecord
  2
DIVIDE2
 70
    0
  3
Divide (.5x) __..__..__..__..__..__..__..__.._
 72
   65
 73
    6
 40
15.875
 49
6.35
 74
    0
 49
-3.175
 74
    0
 49
0
 74
    0
 49
-3.175
 74
    0
 49
0
 74
    0
 49
-3.175
 74
    0
  0
LTYPE
  5
41
330
5
100
AcDbSymbolTableRecord
100
AcDbLinetypeTableRecord
  2
DIVIDEX2
 70
    0
  3
Divide (2x) ________  .  .  ________  .  .  _
 72
   65
 73
    6
 40
63.5
 49
25.4
 74
    0
 49
-12.7
 74
    0
 49
0
 74
    0
 49
-12.7
 74
    0
 49
0
 74
    0
 49
-12.7
 74
    0
  0
LTYPE
  5
42
330
5
100
AcDbSymbolTableRecord
100
AcDbLinetypeTableRecord
  2
BORDER
 70
    0
  3
Border __ __ . __ __ . __ __ . __ __ . __ __ .
 72
   65
 73
    6
 40
44.45
 49
12.7
 74
    0
 49
-6.35
 74
    0
 49
12.7
 74
    0
 49
-6.35
 74
    0
 49
0
 74
    0
 49
-6.35
 74
    0
  0
LTYPE
  5
43
330
5
100
AcDbSymbolTableRecord
100
AcDbLinetypeTableRecord
  2
BORDERTINY
 70
    0
  3
Border (.15x) __.__.__.__.__.__.__.__.__.__.__.
 72
   65
 73
    6
 40
6.6675
 49
1.905
 74
    0
 49
-0.9525
 74
    0
 49
1.905
 74
    0
 49
-0.9525
 74
    0
 49
0
 74
    0
 49
-0.9525
 74
    0
  0
LTYPE
  5
44
330
5
100
AcDbSymbolTableRecord
100
AcDbLinetypeTableRecord
  2
BORDER2
 70
    0
  3
Border (.5x) __.__.__.__.__.__.__.__.__.__.__.
 72
   65
 73
    6
 40
22.225
 49
6.35
 74
    0
 49
-3.175
 74
    0
 49
6.35
 74
    0
 49
-3.175
 74
    0
 49
0
 74
    0
 49
-3.175
 74
    0
  0
LTYPE
  5
45
330
5
100
AcDbSymbolTableRecord
100
AcDbLinetypeTableRecord
  2
BORDERX2
 70
    0
  3
Border (2x) ____  ____  .  ____  ____  .  ___
 72
   65
 73
    6
 40
88.89999999999999
 49
25.4
 74
    0
 49
-12.7
 74
    0
 49
25.4
 74
    0
 49
-12.7
 74
    0
 49
0
 74
    0
 49
-12.7
 74
    0
  0
LTYPE
  5
46
330
5
100
AcDbSymbolTableRecord
100
AcDbLinetypeTableRecord
  2
CENTER
 70
    0
  3
Center ____ _ ____ _ ____ _ ____ _ ____ _ ____
 72
   65
 73
    4
 40
50.8
 49
31.75
 74
    0
 49
-6.35
 74
    0
 49
6.35
 74
    0
 49
-6.35
 74
    0
  0
LTYPE
  5
47
330
5
100
AcDbSymbolTableRecord
100
AcDbLinetypeTableRecord
  2
CENTERTINY
 70
    0
  3
Center (.15x) ___ _ ___ _ ___ _ ___ _ ___ _ ___
 72
   65
 73
    4
 40
7.619999999999999
 49
4.7625
 74
    0
 49
-0.9525
 74
    0
 49
0.9525
 74
    0
 49
-0.9525
 74
    0
  0
LTYPE
  5
48
330
5
100
AcDbSymbolTableRecord
100
AcDbLinetypeTableRecord
  2
CENTER2
 70
    0
  3
Center (.5x) ___ _ ___ _ ___ _ ___ _ ___ _ ___
 72
   65
 73
    4
 40
28.575
 49
19.05
 74
    0
 49
-3.175
 74
    0
 49
3.175
 74
    0
 49
-3.175
 74
    0
  0
LTYPE
  5
49
330
5
100
AcDbSymbolTableRecord
100
AcDbLinetypeTableRecord
  2
CENTERX2
 70
    0
  3
Center (2x) ________  __  ________  __  _____
 72
   65
 73
    4
 40
101.6
 49
63.5
 74
    0
 49
-12.7
 74
    0
 49
12.7
 74
    0
 49
-12.7
 74
    0
  0
ENDTAB
  0
TABLE
  2
LAYER
  5
2
330
0
100
AcDbSymbolTable
 70
    1
  0
LAYER
  5
10
330
2
100
AcDbSymbolTableRecord
100
AcDbLayerTableRecord
  2
0
 70
    0
 62
    7
  6
CONTINUOUS
370
    0
390
F
  0
LAYER
  5
4A
330
2
100
AcDbSymbolTableRecord
100
AcDbLayerTableRecord
  2
dimensions
 70
    0
 62
    5
  6
CONTINUOUS
370
    0
390
F
  0
LAYER
  5
4B
330
2
100
AcDbSymbolTableRecord
100
AcDbLayerTableRecord
  2
drawing
 70
    0
 62
    7
  6
CONTINUOUS
370
    0
390
F
  0
ENDTAB
  0
TABLE
  2
STYLE
  5
3
330
0
100
AcDbSymbolTable
 70
    3
  0
STYLE
  5
4C
330
2
100
AcDbSymbolTableRecord
100
AcDbTextStyleTableRecord
  2
Standard
 70
    0
 40
0
 41
1
 50
0
 71
    0
 42
1
  3
txt
  4

  0
ENDTAB
  0
TABLE
  2
VIEW
  5
6
330
0
100
AcDbSymbolTable
 70
    0
  0
ENDTAB
  0
TABLE
  2
UCS
  5
7
330
0
100
AcDbSymbolTable
 70
    0
  0
ENDTAB
  0
TABLE
  2
APPID
  5
9
330
0
100
AcDbSymbolTable
 70
    1
  0
APPID
  5
12
330
9
100
AcDbSymbolTableRecord
100
AcDbRegAppTableRecord
  2
ACAD
 70
    0
  0
APPID
  5
4D
330
9
100
AcDbSymbolTableRecord
100
AcDbRegAppTableRecord
  2
LibreCad
 70
    0
  0
ENDTAB
  0
TABLE
  2
DIMSTYLE
  5
A
330
0
100
AcDbSymbolTable
 70
    1
100
AcDbDimStyleTable
 71
    1
  0
DIMSTYLE
105
4E
330
A
100
AcDbSymbolTableRecord
100
AcDbDimStyleTableRecord
  2
Standard
 70
    0
 40
2.5
 41
2.5
 42
0.625
 43
0.38
 44
1.25
 45
0
 46
0
 47
0
 48
0
 49
1
140
2.5
141
0.09
142
0
143
25.4
144
1
145
0
146
1
147
0.625
148
0
 71
    0
 72
    0
 73
    0
 74
    1
 75
    0
 76
    0
 77
    0
 78
    8
 79
    0
170
    0
171
    2
172
    0
173
    0
174
    0
175
    0
176
    0
177
    0
178
    0
179
    0
271
    2
272
    4
273
    2
274
    2
275
    0
276
    0
277
    2
278
   44
279
    0
280
    0
281
    0
282
    0
283
    1
284
    0
285
    0
286
    0
288
    0
289
    3
340
STANDARD
341

371
   -2
372
   -2
  0
ENDTAB
  0
TABLE
  2
BLOCK_RECORD
  5
1
330
0
100
AcDbSymbolTable
 70
    2
  0
BLOCK_RECORD
  5
1F
330
1
100
AcDbSymbolTableRecord
100
AcDbBlockTableRecord
  2
*Model_Space
 70
    0
280
    1
281
    0
  0
BLOCK_RECORD
  5
1E
330
1
100
AcDbSymbolTableRecord
100
AcDbBlockTableRecord
  2
*Paper_Space
 70
    0
280
    1
281
    0
  0
BLOCK_RECORD
  5
4F
330
1
100
AcDbSymbolTableRecord
100
AcDbBlockTableRecord
  2
*D9
 70
    0
280
    1
281
    0
  0
BLOCK_RECORD
  5
52
330
1
100
AcDbSymbolTableRecord
100
AcDbBlockTableRecord
  2
*D11
 70
    0
280
    1
281
    0
  0
BLOCK_RECORD
  5
55
330
1
100
AcDbSymbolTableRecord
100
AcDbBlockTableRecord
  2
*D14
 70
    0
280
    1
281
    0
  0
BLOCK_RECORD
  5
58
330
1
100
AcDbSymbolTableRecord
100
AcDbBlockTableRecord
  2
*D1
 70
    0
280
    1
281
    0
  0
BLOCK_RECORD
  5
5B
330
1
100
AcDbSymbolTableRecord
100
AcDbBlockTableRecord
  2
*D2
 70
    0
280
    1
281
    0
  0
BLOCK_RECORD
  5
5E
330
1
100
AcDbSymbolTableRecord
100
AcDbBlockTableRecord
  2
*D6
 70
    0
280
    1
281
    0
  0
BLOCK_RECORD
  5
61
330
1
100
AcDbSymbolTableRecord
100
AcDbBlockTableRecord
  2
*D16
 70
    0
280
    1
281
    0
  0
BLOCK_RECORD
  5
64
330
1
100
AcDbSymbolTableRecord
100
AcDbBlockTableRecord
  2
*D4
 70
    0
280
    1
281
    0
  0
BLOCK_RECORD
  5
67
330
1
100
AcDbSymbolTableRecord
100
AcDbBlockTableRecord
  2
*D7
 70
    0
280
    1
281
    0
  0
BLOCK_RECORD
  5
6A
330
1
100
AcDbSymbolTableRecord
100
AcDbBlockTableRecord
  2
*D10
 70
    0
280
    1
281
    0
  0
BLOCK_RECORD
  5
6D
330
1
100
AcDbSymbolTableRecord
100
AcDbBlockTableRecord
  2
*D12
 70
    0
280
    1
281
    0
  0
BLOCK_RECORD
  5
70
330
1
100
AcDbSymbolTableRecord
100
AcDbBlockTableRecord
  2
*D3
 70
    0
280
    1
281
    0
  0
BLOCK_RECORD
  5
73
330
1
100
AcDbSymbolTableRecord
100
AcDbBlockTableRecord
  2
*D5
 70
    0
280
    1
281
    0
  0
BLOCK_RECORD
  5
76
330
1
100
AcDbSymbolTableRecord
100
AcDbBlockTableRecord
  2
*D13
 70
    0
280
    1
281
    0
  0
BLOCK_RECORD
  5
79
330
1
100
AcDbSymbolTableRecord
100
AcDbBlockTableRecord
  2
*D15
 70
    0
280
    1
281
    0
  0
BLOCK_RECORD
  5
7C
330
1
100
AcDbSymbolTableRecord
100
AcDbBlockTableRecord
  2
*D8
 70
    0
280
    1
281
    0
  0
ENDTAB
  0
ENDSEC
  0
SECTION
  2
BLOCKS
  0
BLOCK
  5
20
330
1F
100
AcDbEntity
  8
0
100
AcDbBlockBegin
  2
*Model_Space
 70
    0
 10
0
 20
0
 30
0
  3
*Model_Space
  1

  0
ENDBLK
  5
21
330
1F
100
AcDbEntity
  8
0
100
AcDbBlockEnd
  0
BLOCK
  5
1C
330
1B
100
AcDbEntity
  8
0
100
AcDbBlockBegin
  2
*Paper_Space
 70
    0
 10
0
 20
0
 30
0
  3
*Paper_Space
  1

  0
ENDBLK
  5
1D
330
1F
100
AcDbEntity
  8
0
100
AcDbBlockEnd
  0
BLOCK
  5
50
330
4F
100
AcDbEntity
  8
0
100
AcDbBlockBegin
  2
*D9
 70
    1
 10
0
 20
0
  3
*D9
  1

  0
LINE
  5
7F
100
AcDbEntity
  8
dimensions
  6
ByBlock
 62
    0
370
   -2
100
AcDbLine
 10
152
 20
118
 11
152
 21
94
  0
SOLID
  5
80
100
AcDbEntity
  8
dimensions
  6
ByBlock
 62
    0
370
   -2
100
AcDbTrace
 10
152
 20
118
 30
0
 11
153.0407116444321
 21
111.75
 31
0
 12
150.9592883555679
 22
111.75
 32
0
 13
150.9592883555679
 23
111.75
 33
0
  0
SOLID
  5
81
100
AcDbEntity
  8
dimensions
  6
ByBlock
 62
    0
370
   -2
100
AcDbTrace
 10
152
 20
94
 30
0
 11
150.9592883555679
 21
100.25
 31
0
 12
153.0407116444321
 22
100.25
 32
0
 13
153.0407116444321
 23
100.25
 33
0
  0
MTEXT
  5
82
100
AcDbEntity
  8
dimensions
  6
CONTINUOUS
 62
    0
370
   -2
100
AcDbMText
 10
147.3125
 20
106
 30
0
 40
6.25
 41
8.333333333333332
 71
    5
 72
    1
  1
24
  7
STANDARD
210
0
220
0
230
1
 50
90
 73
    2
 44
1
  0
LINE
  5
83
100
AcDbEntity
  8
dimensions
  6
ByBlock
 62
    0
370
   -2
100
AcDbLine
 10
154.4375
 20
118
 11
148.875
 21
118
  0
LINE
  5
84
100
AcDbEntity
  8
dimensions
  6
ByBlock
 62
    0
370
   -2
100
AcDbLine
 10
154.4375
 20
94
 11
148.875
 21
94
  0
ENDBLK
  5
51
330
4F
100
AcDbEntity
  8
0
100
AcDbBlockEnd
  0
BLOCK
  5
53
330
52
100
AcDbEntity
  8
0
100
AcDbBlockBegin
  2
*D11
 70
    1
 10
0
 20
0
  3
*D11
  1

  0
LINE
  5
85
100
AcDbEntity
  8
dimensions
  6
ByBlock
 62
    0
370
   -2
100
AcDbLine
 10
142
 20
28
 11
142
 21
48
  0
SOLID
  5
86
100
AcDbEntity
  8
dimensions
  6
ByBlock
 62
    0
370
   -2
100
AcDbTrace
 10
142
 20
28
 30
0
 11
140.9592883555679
 21
34.25
 31
0
 12
143.0407116444321
 22
34.25
 32
0
 13
143.0407116444321
 23
34.25
 33
0
  0
SOLID
  5
87
100
AcDbEntity
  8
dimensions
  6
ByBlock
 62
    0
370
   -2
100
AcDbTrace
 10
142
 20
48
 30
0
 11
143.0407116444321
 21
41.75
 31
0
 12
140.9592883555679
 22
41.75
 32
0
 13
140.9592883555679
 23
41.75
 33
0
  0
MTEXT
  5
88
100
AcDbEntity
  8
dimensions
  6
CONTINUOUS
 62
    0
370
   -2
100
AcDbMText
 10
137.3125
 20
38
 30
0
 40
6.25
 41
7.638888888888888
 71
    5
 72
    1
  1
20
  7
STANDARD
210
0
220
0
230
1
 50
90
 73
    2
 44
1
  0
LINE
  5
89
100
AcDbEntity
  8
dimensions
  6
ByBlock
 62
    0
370
   -2
100
AcDbLine
 10
154.4375
 20
28
 11
138.875
 21
28
  0
LINE
  5
8A
100
AcDbEntity
  8
dimensions
  6
ByBlock
 62
    0
370
   -2
100
AcDbLine
 10
154.4375
 20
48
 11
138.875
 21
48
  0
ENDBLK
  5
54
330
52
100
AcDbEntity
  8
0
100
AcDbBlockEnd
  0
BLOCK
  5
56
330
55
100
AcDbEntity
  8
0
100
AcDbBlockBegin
  2
*D14
 70
    1
 10
0
 20
0
  3
*D14
  1

  0
LINE
  5
8B
100
AcDbEntity
  8
dimensions
  6
ByBlock
 62
    0
370
   -2
100
AcDbLine
 10
132.5
 20
-15
 11
170.5
 21
-15
  0
SOLID
  5
8C
100
AcDbEntity
  8
dimensions
  6
ByBlock
 62
    0
370
   -2
100
AcDbTrace
 10
145
 20
-15
 30
0
 11
138.75
 21
-16.0407116444321
 31
0
 12
138.75
 22
-13.9592883555679
 32
0
 13
138.75
 23
-13.9592883555679
 33
0
  0
SOLID
  5
8D
100
AcDbEntity
  8
dimensions
  6
ByBlock
 62
    0
370
   -2
100
AcDbTrace
 10
158
 20
-15
 30
0
 11
164.25
 21
-13.9592883555679
 31
0
 12
164.25
 22
-16.0407116444321
 32
0
 13
164.25
 23
-16.0407116444321
 33
0
  0
MTEXT
  5
8E
100
AcDbEntity
  8
dimensions
  6
CONTINUOUS
 62
    0
370
   -2
100
AcDbMText
 10
151.5
 20
-19.6875
 30
0
 40
6.25
 41
6.250000000000387
 71
    5
 72
    1
  1
13
  7
STANDARD
210
0
220
0
230
1
 50
0
 73
    2
 44
1
  0
LINE
  5
8F
100
AcDbEntity
  8
dimensions
  6
ByBlock
 62
    0
370
   -2
100
AcDbLine
 10
145
 20
-18.4375
 11
145
 21
-11.875
  0
LINE
  5
90
100
AcDbEntity
  8
dimensions
  6
ByBlock
 62
    0
370
   -2
100
AcDbLine
 10
158
 20
-18.4375
 11
158
 21
-11.875
  0
ENDBLK
  5
57
330
55
100
AcDbEntity
  8
0
100
AcDbBlockEnd
  0
BLOCK
  5
59
330
58
100
AcDbEntity
  8
0
100
AcDbBlockBegin
  2
*D1
 70
    1
 10
0
 20
0
  3
*D1
  1

  0
LINE
  5
91
100
AcDbEntity
  8
dimensions
  6
ByBlock
 62
    0
370
   -2
100
AcDbLine
 10
-1.999999999999993
 20
118
 11
-2
 21
0
  0
SOLID
  5
92
100
AcDbEntity
  8
dimensions
  6
ByBlock
 62
    0
370
   -2
100
AcDbTrace
 10
-1.999999999999993
 20
118
 30
0
 11
-0.9592883555678917
 21
111.75
 31
0
 12
-3.040711644432094
 22
111.75
 32
0
 13
-3.040711644432094
 23
111.75
 33
0
  0
SOLID
  5
93
100
AcDbEntity
  8
dimensions
  6
ByBlock
 62
    0
370
   -2
100
AcDbTrace
 10
-2
 20
0
 30
0
 11
-3.0407116444321
 21
6.25
 31
0
 12
-0.9592883555678977
 22
6.25
 32
0
 13
-0.9592883555678977
 23
6.25
 33
0
  0
MTEXT
  5
94
100
AcDbEntity
  8
dimensions
  6
CONTINUOUS
 62
    0
370
   -2
100
AcDbMText
 10
-6.687499999999996
 20
59
 30
0
 40
6.25
 41
9.722222222222221
 71
    5
 72
    1
  1
118
  7
STANDARD
210
0
220
0
230
1
 50
90
 73
    2
 44
1
  0
LINE
  5
95
100
AcDbEntity
  8
dimensions
  6
ByBlock
 62
    0
370
   -2
100
AcDbLine
 10
-2.5625
 20
118
 11
-5.124999999999993
 21
118
  0
LINE
  5
96
100
AcDbEntity
  8
dimensions
  6
ByBlock
 62
    0
370
   -2
100
AcDbLine
 10
-3.5625
 20
1.913510623667739e-16
 11
-5.125
 21
3.827021247335479e-16
  0
ENDBLK
  5
5A
330
58
100
AcDbEntity
  8
0
100
AcDbBlockEnd
  0
BLOCK
  5
5C
330
5B
100
AcDbEntity
  8
0
100
AcDbBlockBegin
  2
*D2
 70
    1
 10
0
 20
0
  3
*D2
  1

  0
LINE
  5
97
100
AcDbEntity
  8
dimensions
  6
ByBlock
 62
    0
370
   -2
100
AcDbLine
 10
-12
 20
133.5
 11
-12
 21
105.5
  0
SOLID
  5
98
100
AcDbEntity
  8
dimensions
  6
ByBlock
 62
    0
370
   -2
100
AcDbTrace
 10
-12
 20
121
 30
0
 11
-13.0407116444321
 21
127.25
 31
0
 12
-10.9592883555679
 22
127.25
 32
0
 13
-10.9592883555679
 23
127.25
 33
0
  0
SOLID
  5
99
100
AcDbEntity
  8
dimensions
  6
ByBlock
 62
    0
370
   -2
100
AcDbTrace
 10
-12
 20
118
 30
0
 11
-10.9592883555679
 21
111.75
 31
0
 12
-13.0407116444321
 22
111.75
 32
0
 13
-13.0407116444321
 23
111.75
 33
0
  0
MTEXT
  5
9A
100
AcDbEntity
  8
dimensions
  6
CONTINUOUS
 62
    0
370
   -2
100
AcDbMText
 10
-16.6875
 20
119.5
 30
0
 40
6.25
 41
2.777777777778165
 71
    5
 72
    1
  1
3
  7
STANDARD
210
0
220
0
230
1
 50
90
 73
    2
 44
1
  0
LINE
  5
9B
100
AcDbEntity
  8
dimensions
  6
ByBlock
 62
    0
370
   -2
100
AcDbLine
 10
8.4375
 20
121
 11
-15.125
 21
121
  0
LINE
  5
9C
100
AcDbEntity
  8
dimensions
  6
ByBlock
 62
    0
370
   -2
100
AcDbLine
 10
8.4375
 20
118
 11
-15.125
 21
118
  0
ENDBLK
  5
5D
330
5B
100
AcDbEntity
  8
0
100
AcDbBlockEnd
  0
BLOCK
  5
5F
330
5E
100
AcDbEntity
  8
0
100
AcDbBlockBegin
  2
*D6
 70
    1
 10
0
 20
0
  3
*D6
  1

  0
LINE
  5
9D
100
AcDbEntity
  8
dimensions
  6
ByBlock
 62
    0
370
   -2
100
AcDbLine
 10
172
 20
106.5
 11
172
 21
68.5
  0
SOLID
  5
9E
100
AcDbEntity
  8
dimensions
  6
ByBlock
 62
    0
370
   -2
100
AcDbTrace
 10
172
 20
94
 30
0
 11
170.9592883555679
 21
100.25
 31
0
 12
173.0407116444321
 22
100.25
 32
0
 13
173.0407116444321
 23
100.25
 33
0
  0
SOLID
  5
9F
100
AcDbEntity
  8
dimensions
  6
ByBlock
 62
    0
370
   -2
100
AcDbTrace
 10
172
 20
81
 30
0
 11
173.0407116444321
 21
74.75
 31
0
 12
170.9592883555679
 22
74.75
 32
0
 13
170.9592883555679
 23
74.75
 33
0
  0
MTEXT
  5
A0
100
AcDbEntity
  8
dimensions
  6
CONTINUOUS
 62
    0
370
   -2
100
AcDbMText
 10
176.6875
 20
87.5
 30
0
 40
6.25
 41
6.250000000000387
 71
    5
 72
    1
  1
13
  7
STANDARD
210
0
220
0
230
1
 50
90
 73
    2
 44
1
  0
LINE
  5
A1
100
AcDbEntity
  8
dimensions
  6
ByBlock
 62
    0
370
   -2
100
AcDbLine
 10
170.4375
 20
94
 11
168.875
 21
94
  0
LINE
  5
A2
100
AcDbEntity
  8
dimensions
  6
ByBlock
 62
    0
370
   -2
100
AcDbLine
 10
170.4375
 20
81
 11
168.875
 21
81
  0
ENDBLK
  5
60
330
5E
100
AcDbEntity
  8
0
100
AcDbBlockEnd
  0
BLOCK
  5
62
330
61
100
AcDbEntity
  8
0
100
AcDbBlockBegin
  2
*D16
 70
    1
 10
0
 20
0
  3
*D16
  1

  0
LINE
  5
A3
100
AcDbEntity
  8
dimensions
  6
ByBlock
 62
    0
370
   -2
100
AcDbLine
 10
0
 20
137
 11
158
 21
137
  0
SOLID
  5
A4
100
AcDbEntity
  8
dimensions
  6
ByBlock
 62
    0
370
   -2
100
AcDbTrace
 10
0
 20
137
 30
0
 11
6.25
 21
138.0407116444321
 31
0
 12
6.25
 22
135.9592883555679
 32
0
 13
6.25
 23
135.9592883555679
 33
0
  0
SOLID
  5
A5
100
AcDbEntity
  8
dimensions
  6
ByBlock
 62
    0
370
   -2
100
AcDbTrace
 10
158
 20
137
 30
0
 11
151.75
 21
135.9592883555679
 31
0
 12
151.75
 22
138.0407116444321
 32
0
 13
151.75
 23
138.0407116444321
 33
0
  0
MTEXT
  5
A6
100
AcDbEntity
  8
dimensions
  6
CONTINUOUS
 62
    0
370
   -2
100
AcDbMText
 10
79
 20
141.6875
 30
0
 40
6.25
 41
11.1111111111115
 71
    5
 72
    1
  1
158
  7
STANDARD
210
0
220
0
230
1
 50
0
 73
    2
 44
1
  0
LINE
  5
A7
100
AcDbEntity
  8
dimensions
  6
ByBlock
 62
    0
370
   -2
100
AcDbLine
 10
9.567553118338697e-17
 20
131.5625
 11
1.913510623667739e-16
 21
140.125
  0
LINE
  5
A8
100
AcDbEntity
  8
dimensions
  6
ByBlock
 62
    0
370
   -2
100
AcDbLine
 10
158
 20
131.5625
 11
158
 21
140.125
  0
ENDBLK
  5
63
330
61
100
AcDbEntity
  8
0
100
AcDbBlockEnd
  0
BLOCK
  5
65
330
64
100
AcDbEntity
  8
0
100
AcDbBlockBegin
  2
*D4
 70
    1
 10
0
 20
0
  3
*D4
  1

  0
LINE
  5
A9
100
AcDbEntity
  8
dimensions
  6
ByBlock
 62
    0
370
   -2
100
AcDbLine
 10
45
 20
124
 11
124
 21
124
  0
SOLID
  5
AA
100
AcDbEntity
  8
dimensions
  6
ByBlock
 62
    0
370
   -2
100
AcDbTrace
 10
45
 20
124
 30
0
 11
51.25
 21
125.0407116444321
 31
0
 12
51.25
 22
122.9592883555679
 32
0
 13
51.25
 23
122.9592883555679
 33
0
  0
SOLID
  5
AB
100
AcDbEntity
  8
dimensions
  6
ByBlock
 62
    0
370
   -2
100
AcDbTrace
 10
124
 20
124
 30
0
 11
117.75
 21
122.9592883555679
 31
0
 12
117.75
 22
125.0407116444321
 32
0
 13
117.75
 23
125.0407116444321
 33
0
  0
MTEXT
  5
AC
100
AcDbEntity
  8
dimensions
  6
CONTINUOUS
 62
    0
370
   -2
100
AcDbMText
 10
84.5
 20
128.6875
 30
0
 40
6.25
 41
7.638888888888888
 71
    5
 72
    1
  1
79
  7
STANDARD
210
0
220
0
230
1
 50
0
 73
    2
 44
1
  0
LINE
  5
AD
100
AcDbEntity
  8
dimensions
  6
ByBlock
 62
    0
370
   -2
100
AcDbLine
 10
45
 20
124.5625
 11
45
 21
127.125
  0
LINE
  5
AE
100
AcDbEntity
  8
dimensions
  6
ByBlock
 62
    0
370
   -2
100
AcDbLine
 10
124
 20
124.5625
 11
124
 21
127.125
  0
ENDBLK
  5
66
330
64
100
AcDbEntity
  8
0
100
AcDbBlockEnd
  0
BLOCK
  5
68
330
67
100
AcDbEntity
  8
0
100
AcDbBlockBegin
  2
*D7
 70
    1
 10
0
 20
0
  3
*D7
  1

  0
LINE
  5
AF
100
AcDbEntity
  8
dimensions
  6
ByBlock
 62
    0
370
   -2
100
AcDbLine
 10
145.5
 20
45
 11
182.5
 21
45
  0
SOLID
  5
B0
100
AcDbEntity
  8
dimensions
  6
ByBlock
 62
    0
370
   -2
100
AcDbTrace
 10
158
 20
45
 30
0
 11
151.75
 21
43.9592883555679
 31
0
 12
151.75
 22
46.0407116444321
 32
0
 13
151.75
 23
46.0407116444321
 33
0
  0
SOLID
  5
B1
100
AcDbEntity
  8
dimensions
  6
ByBlock
 62
    0
370
   -2
100
AcDbTrace
 10
170
 20
45
 30
0
 11
176.25
 21
46.0407116444321
 31
0
 12
176.25
 22
43.9592883555679
 32
0
 13
176.25
 23
43.9592883555679
 33
0
  0
MTEXT
  5
B2
100
AcDbEntity
  8
dimensions
  6
CONTINUOUS
 62
    0
370
   -2
100
AcDbMText
 10
164
 20
40.3125
 30
0
 40
6.25
 41
6.25
 71
    5
 72
    1
  1
12
  7
STANDARD
210
0
220
0
230
1
 50
0
 73
    2
 44
1
  0
LINE
  5
B3
100
AcDbEntity
  8
dimensions
  6
ByBlock
 62
    0
370
   -2
100
AcDbLine
 10
158
 20
46.5625
 11
158
 21
48.125
  0
LINE
  5
B4
100
AcDbEntity
  8
dimensions
  6
ByBlock
 62
    0
370
   -2
100
AcDbLine
 10
170
 20
46.5625
 11
170
 21
48.125
  0
ENDBLK
  5
69
330
67
100
AcDbEntity
  8
0
100
AcDbBlockEnd
  0
BLOCK
  5
6B
330
6A
100
AcDbEntity
  8
0
100
AcDbBlockBegin
  2
*D10
 70
    1
 10
0
 20
0
  3
*D10
  1

  0
LINE
  5
B5
100
AcDbEntity
  8
dimensions
  6
ByBlock
 62
    0
370
   -2
100
AcDbLine
 10
153
 20
-12.5
 11
153
 21
27.5
  0
SOLID
  5
B6
100
AcDbEntity
  8
dimensions
  6
ByBlock
 62
    0
370
   -2
100
AcDbTrace
 10
153
 20
0
 30
0
 11
154.0407116444321
 21
-6.25
 31
0
 12
151.9592883555679
 22
-6.25
 32
0
 13
151.9592883555679
 23
-6.25
 33
0
  0
SOLID
  5
B7
100
AcDbEntity
  8
dimensions
  6
ByBlock
 62
    0
370
   -2
100
AcDbTrace
 10
153
 20
15
 30
0
 11
151.9592883555679
 21
21.25
 31
0
 12
154.0407116444321
 22
21.25
 32
0
 13
154.0407116444321
 23
21.25
 33
0
  0
MTEXT
  5
B8
100
AcDbEntity
  8
dimensions
  6
CONTINUOUS
 62
    0
370
   -2
100
AcDbMText
 10
148.3125
 20
7.500000000000001
 30
0
 40
6.25
 41
6.250000000000387
 71
    5
 72
    1
  1
15
  7
STANDARD
210
0
220
0
230
1
 50
90
 73
    2
 44
1
  0
LINE
  5
B9
100
AcDbEntity
  8
dimensions
  6
ByBlock
 62
    0
370
   -2
100
AcDbLine
 10
154.4375
 20
1.913510623667739e-16
 11
149.875
 21
3.827021247335479e-16
  0
LINE
  5
BA
100
AcDbEntity
  8
dimensions
  6
ByBlock
 62
    0
370
   -2
100
AcDbLine
 10
154.4375
 20
15
 11
149.875
 21
15
  0
ENDBLK
  5
6C
330
6A
100
AcDbEntity
  8
0
100
AcDbBlockEnd
  0
BLOCK
  5
6E
330
6D
100
AcDbEntity
  8
0
100
AcDbBlockBegin
  2
*D12
 70
    1
 10
0
 20
0
  3
*D12
  1

  0
LINE
  5
BB
100
AcDbEntity
  8
dimensions
  6
ByBlock
 62
    0
370
   -2
100
AcDbLine
 10
45
 20
124
 11
0
 21
124
  0
SOLID
  5
BC
100
AcDbEntity
  8
dimensions
  6
ByBlock
 62
    0
370
   -2
100
AcDbTrace
 10
45
 20
124
 30
0
 11
38.75
 21
122.9592883555679
 31
0
 12
38.75
 22
125.0407116444321
 32
0
 13
38.75
 23
125.0407116444321
 33
0
  0
SOLID
  5
BD
100
AcDbEntity
  8
dimensions
  6
ByBlock
 62
    0
370
   -2
100
AcDbTrace
 10
0
 20
124
 30
0
 11
6.25
 21
125.0407116444321
 31
0
 12
6.25
 22
122.9592883555679
 32
0
 13
6.25
 23
122.9592883555679
 33
0
  0
MTEXT
  5
BE
100
AcDbEntity
  8
dimensions
  6
CONTINUOUS
 62
    0
370
   -2
100
AcDbMText
 10
22.5
 20
128.6875
 30
0
 40
6.25
 41
8.333333333333719
 71
    5
 72
    1
  1
45
  7
STANDARD
210
0
220
0
230
1
 50
360
 73
    2
 44
1
  0
LINE
  5
BF
100
AcDbEntity
  8
dimensions
  6
ByBlock
 62
    0
370
   -2
100
AcDbLine
 10
45
 20
124.5625
 11
45
 21
127.125
  0
LINE
  5
C0
100
AcDbEntity
  8
dimensions
  6
ByBlock
 62
    0
370
   -2
100
AcDbLine
 10
9.567553118338697e-17
 20
124.5625
 11
1.913510623667739e-16
 21
127.125
  0
ENDBLK
  5
6F
330
6D
100
AcDbEntity
  8
0
100
AcDbBlockEnd
  0
BLOCK
  5
71
330
70
100
AcDbEntity
  8
0
100
AcDbBlockBegin
  2
*D3
 70
    1
 10
0
 20
0
  3
*D3
  1

  0
LINE
  5
C1
100
AcDbEntity
  8
dimensions
  6
ByBlock
 62
    0
370
   -2
100
AcDbLine
 10
-10
 20
12.5
 11
-10
 21
-15.5
  0
SOLID
  5
C2
100
AcDbEntity
  8
dimensions
  6
ByBlock
 62
    0
370
   -2
100
AcDbTrace
 10
-10
 20
1.332267629550188e-15
 30
0
 11
-11.0407116444321
 21
6.250000000000002
 31
0
 12
-8.959288355567898
 22
6.250000000000002
 32
0
 13
-8.959288355567898
 23
6.250000000000002
 33
0
  0
SOLID
  5
C3
100
AcDbEntity
  8
dimensions
  6
ByBlock
 62
    0
370
   -2
100
AcDbTrace
 10
-10
 20
-2.999999999999999
 30
0
 11
-8.959288355567899
 21
-9.25
 31
0
 12
-11.0407116444321
 22
-9.25
 32
0
 13
-11.0407116444321
 23
-9.25
 33
0
  0
MTEXT
  5
C4
100
AcDbEntity
  8
dimensions
  6
CONTINUOUS
 62
    0
370
   -2
100
AcDbMText
 10
-14.6875
 20
-1.499999999999998
 30
0
 40
6.25
 41
2.777777777778165
 71
    5
 72
    1
  1
3
  7
STANDARD
210
0
220
0
230
1
 50
90
 73
    2
 44
1
  0
LINE
  5
C5
100
AcDbEntity
  8
dimensions
  6
ByBlock
 62
    0
370
   -2
100
AcDbLine
 10
7.4375
 20
1.913510623667739e-16
 11
-13.125
 21
1.714969754283736e-15
  0
LINE
  5
C6
100
AcDbEntity
  8
dimensions
  6
ByBlock
 62
    0
370
   -2
100
AcDbLine
 10
7.4375
 20
-3
 11
-13.125
 21
-2.999999999999999
  0
ENDBLK
  5
72
330
70
100
AcDbEntity
  8
0
100
AcDbBlockEnd
  0
BLOCK
  5
74
330
73
100
AcDbEntity
  8
0
100
AcDbBlockBegin
  2
*D5
 70
    1
 10
0
 20
0
  3
*D5
  1

  0
LINE
  5
C7
100
AcDbEntity
  8
dimensions
  6
ByBlock
 62
    0
370
   -2
100
AcDbLine
 10
15
 20
-8
 11
145
 21
-8
  0
SOLID
  5
C8
100
AcDbEntity
  8
dimensions
  6
ByBlock
 62
    0
370
   -2
100
AcDbTrace
 10
15
 20
-8
 30
0
 11
21.25
 21
-6.959288355567899
 31
0
 12
21.25
 22
-9.040711644432102
 32
0
 13
21.25
 23
-9.040711644432102
 33
0
  0
SOLID
  5
C9
100
AcDbEntity
  8
dimensions
  6
ByBlock
 62
    0
370
   -2
100
AcDbTrace
 10
145
 20
-8
 30
0
 11
138.75
 21
-9.040711644432101
 31
0
 12
138.75
 22
-6.959288355567899
 32
0
 13
138.75
 23
-6.959288355567899
 33
0
  0
MTEXT
  5
CA
100
AcDbEntity
  8
dimensions
  6
CONTINUOUS
 62
    0
370
   -2
100
AcDbMText
 10
80
 20
-12.6875
 30
0
 40
6.25
 41
11.1111111111115
 71
    5
 72
    1
  1
130
  7
STANDARD
210
0
220
0
230
1
 50
0
 73
    2
 44
1
  0
LINE
  5
CB
100
AcDbEntity
  8
dimensions
  6
ByBlock
 62
    0
370
   -2
100
AcDbLine
 10
15
 20
-9.4375
 11
15
 21
-4.875
  0
LINE
  5
CC
100
AcDbEntity
  8
dimensions
  6
ByBlock
 62
    0
370
   -2
100
AcDbLine
 10
145
 20
-9.4375
 11
145
 21
-4.875
  0
ENDBLK
  5
75
330
73
100
AcDbEntity
  8
0
100
AcDbBlockEnd
  0
BLOCK
  5
77
330
76
100
AcDbEntity
  8
0
100
AcDbBlockBegin
  2
*D13
 70
    1
 10
0
 20
0
  3
*D13
  1

  0
LINE
  5
CD
100
AcDbEntity
  8
dimensions
  6
ByBlock
 62
    0
370
   -2
100
AcDbLine
 10
124
 20
124
 11
158
 21
124
  0
SOLID
  5
CE
100
AcDbEntity
  8
dimensions
  6
ByBlock
 62
    0
370
   -2
100
AcDbTrace
 10
124
 20
124
 30
0
 11
130.25
 21
125.0407116444321
 31
0
 12
130.25
 22
122.9592883555679
 32
0
 13
130.25
 23
122.9592883555679
 33
0
  0
SOLID
  5
CF
100
AcDbEntity
  8
dimensions
  6
ByBlock
 62
    0
370
   -2
100
AcDbTrace
 10
158
 20
124
 30
0
 11
151.75
 21
122.9592883555679
 31
0
 12
151.75
 22
125.0407116444321
 32
0
 13
151.75
 23
125.0407116444321
 33
0
  0
MTEXT
  5
D0
100
AcDbEntity
  8
dimensions
  6
CONTINUOUS
 62
    0
370
   -2
100
AcDbMText
 10
141
 20
128.6875
 30
0
 40
6.25
 41
8.333333333333721
 71
    5
 72
    1
  1
34
  7
STANDARD
210
0
220
0
230
1
 50
0
 73
    2
 44
1
  0
LINE
  5
D1
100
AcDbEntity
  8
dimensions
  6
ByBlock
 62
    0
370
   -2
100
AcDbLine
 10
124
 20
124.5625
 11
124
 21
127.125
  0
LINE
  5
D2
100
AcDbEntity
  8
dimensions
  6
ByBlock
 62
    0
370
   -2
100
AcDbLine
 10
158
 20
124.5625
 11
158
 21
127.125
  0
ENDBLK
  5
78
330
76
100
AcDbEntity
  8
0
100
AcDbBlockEnd
  0
BLOCK
  5
7A
330
79
100
AcDbEntity
  8
0
100
AcDbBlockBegin
  2
*D15
 70
    1
 10
0
 20
0
  3
*D15
  1

  0
LINE
  5
D3
100
AcDbEntity
  8
dimensions
  6
ByBlock
 62
    0
370
   -2
100
AcDbLine
 10
27.5
 20
-8
 11
-12.5
 21
-8
  0
SOLID
  5
D4
100
AcDbEntity
  8
dimensions
  6
ByBlock
 62
    0
370
   -2
100
AcDbTrace
 10
15
 20
-8
 30
0
 11
21.25
 21
-6.959288355567899
 31
0
 12
21.25
 22
-9.040711644432102
 32
0
 13
21.25
 23
-9.040711644432102
 33
0
  0
SOLID
  5
D5
100
AcDbEntity
  8
dimensions
  6
ByBlock
 62
    0
370
   -2
100
AcDbTrace
 10
-2.465190328815662e-32
 20
-8
 30
0
 11
-6.25
 21
-9.040711644432101
 31
0
 12
-6.25
 22
-6.959288355567899
 32
0
 13
-6.25
 23
-6.959288355567899
 33
0
  0
MTEXT
  5
D6
100
AcDbEntity
  8
dimensions
  6
CONTINUOUS
 62
    0
370
   -2
100
AcDbMText
 10
7.5
 20
-12.6875
 30
0
 40
6.25
 41
6.250000000000387
 71
    5
 72
    1
  1
15
  7
STANDARD
210
0
220
0
230
1
 50
360
 73
    2
 44
1
  0
LINE
  5
D7
100
AcDbEntity
  8
dimensions
  6
ByBlock
 62
    0
370
   -2
100
AcDbLine
 10
15
 20
-9.4375
 11
15
 21
-4.875
  0
LINE
  5
D8
100
AcDbEntity
  8
dimensions
  6
ByBlock
 62
    0
370
   -2
100
AcDbLine
 10
9.567553118338697e-17
 20
-9.4375
 11
1.913510623667739e-16
 21
-4.875
  0
ENDBLK
  5
7B
330
79
100
AcDbEntity
  8
0
100
AcDbBlockEnd
  0
BLOCK
  5
7D
330
7C
100
AcDbEntity
  8
0
100
AcDbBlockBegin
  2
*D8
 70
    1
 10
0
 20
0
  3
*D8
  1

  0
LINE
  5
D9
100
AcDbEntity
  8
dimensions
  6
ByBlock
 62
    0
370
   -2
100
AcDbLine
 10
152
 20
81
 11
152
 21
61
  0
SOLID
  5
DA
100
AcDbEntity
  8
dimensions
  6
ByBlock
 62
    0
370
   -2
100
AcDbTrace
 10
152
 20
81
 30
0
 11
153.0407116444321
 21
74.75
 31
0
 12
150.9592883555679
 22
74.75
 32
0
 13
150.9592883555679
 23
74.75
 33
0
  0
SOLID
  5
DB
100
AcDbEntity
  8
dimensions
  6
ByBlock
 62
    0
370
   -2
100
AcDbTrace
 10
152
 20
61
 30
0
 11
150.9592883555679
 21
67.25
 31
0
 12
153.0407116444321
 22
67.25
 32
0
 13
153.0407116444321
 23
67.25
 33
0
  0
MTEXT
  5
DC
100
AcDbEntity
  8
dimensions
  6
CONTINUOUS
 62
    0
370
   -2
100
AcDbMText
 10
147.3125
 20
71
 30
0
 40
6.25
 41
7.638888888888888
 71
    5
 72
    1
  1
20
  7
STANDARD
210
0
220
0
230
1
 50
90
 73
    2
 44
1
  0
LINE
  5
DD
100
AcDbEntity
  8
dimensions
  6
ByBlock
 62
    0
370
   -2
100
AcDbLine
 10
154.4375
 20
81
 11
148.875
 21
81
  0
LINE
  5
DE
100
AcDbEntity
  8
dimensions
  6
ByBlock
 62
    0
370
   -2
100
AcDbLine
 10
154.4375
 20
61
 11
148.875
 21
61
  0
ENDBLK
  5
7E
330
7C
100
AcDbEntity
  8
0
100
AcDbBlockEnd
  0
ENDSEC
  0
SECTION
  2
ENTITIES
  0
DIMENSION
  5
DF
100
AcDbEntity
  8
dimensions
  6
ByLayer
 62
  256
370
   -1
100
AcDbDimension
  2
*D1
 10
-2
 20
0
 30
0
 11
-6.687499999999996
 21
59
 31
0
 70
   32
 71
    5
 72
    0
  3
Standard
 53
0
210
0
220
0
230
1
100
AcDbAlignedDimension
 13
-1
 23
118
 33
0
 14
-2
 24
0
 34
0
 50
90
100
AcDbRotatedDimension
  0
DIMENSION
  5
E0
100
AcDbEntity
  8
dimensions
  6
ByLayer
 62
  256
370
   -1
100
AcDbDimension
  2
*D2
 10
-12
 20
118
 30
0
 11
-16.6875
 21
119.5
 31
0
 70
   32
 71
    5
 72
    0
  3
Standard
 53
0
210
0
220
0
230
1
100
AcDbAlignedDimension
 13
10
 23
121
 33
0
 14
10
 24
118
 34
0
 50
90
100
AcDbRotatedDimension
  0
DIMENSION
  5
E1
100
AcDbEntity
  8
dimensions
  6
ByLayer
 62
  256
370
   -1
100
AcDbDimension
  2
*D3
 10
-10
 20
-2.999999999999998
 30
0
 11
-14.6875
 21
-1.499999999999998
 31
0
 70
   32
 71
    5
 72
    0
  3
Standard
 53
0
210
0
220
0
230
1
100
AcDbAlignedDimension
 13
9
 23
0
 33
0
 14
9
 24
-3
 34
0
 50
90
100
AcDbRotatedDimension
  0
DIMENSION
  5
E2
100
AcDbEntity
  8
dimensions
  6
ByLayer
 62
  256
370
   -1
100
AcDbDimension
  2
*D4
 10
124
 20
124
 30
0
 11
84.5
 21
128.6875
 31
0
 70
   32
 71
    5
 72
    0
  3
Standard
 53
0
210
0
220
0
230
1
100
AcDbAlignedDimension
 13
45
 23
123
 33
0
 14
124
 24
123
 34
0
100
AcDbRotatedDimension
  0
DIMENSION
  5
E3
100
AcDbEntity
  8
dimensions
  6
ByLayer
 62
  256
370
   -1
100
AcDbDimension
  2
*D5
 10
145
 20
-8
 30
0
 11
80
 21
-12.6875
 31
0
 70
   32
 71
    5
 72
    0
  3
Standard
 53
0
210
0
220
0
230
1
100
AcDbAlignedDimension
 13
15
 23
-11
 33
0
 14
145
 24
-11
 34
0
100
AcDbRotatedDimension
  0
DIMENSION
  5
E4
100
AcDbEntity
  8
dimensions
  6
ByLayer
 62
  256
370
   -1
100
AcDbDimension
  2
*D6
 10
172
 20
81
 30
0
 11
176.6875
 21
87.5
 31
0
 70
   32
 71
    5
 72
    0
  3
Standard
 53
0
210
0
220
0
230
1
100
AcDbAlignedDimension
 13
172
 23
94
 33
0
 14
172
 24
81
 34
0
 50
90.00000000000001
100
AcDbRotatedDimension
  0
DIMENSION
  5
E5
100
AcDbEntity
  8
dimensions
  6
ByLayer
 62
  256
370
   -1
100
AcDbDimension
  2
*D7
 10
170
 20
45
 30
0
 11
164
 21
40.3125
 31
0
 70
   32
 71
    5
 72
    0
  3
Standard
 53
0
210
0
220
0
230
1
100
AcDbAlignedDimension
 13
158
 23
45
 33
0
 14
170
 24
45
 34
0
100
AcDbRotatedDimension
  0
DIMENSION
  5
E6
100
AcDbEntity
  8
dimensions
  6
ByLayer
 62
  256
370
   -1
100
AcDbDimension
  2
*D8
 10
152
 20
61
 30
0
 11
147.3125
 21
71
 31
0
 70
   32
 71
    5
 72
    0
  3
Standard
 53
0
210
0
220
0
230
1
100
AcDbAlignedDimension
 13
156
 23
81
 33
0
 14
156
 24
61
 34
0
 50
90
100
AcDbRotatedDimension
  0
DIMENSION
  5
E7
100
AcDbEntity
  8
dimensions
  6
ByLayer
 62
  256
370
   -1
100
AcDbDimension
  2
*D9
 10
152
 20
94
 30
0
 11
147.3125
 21
106
 31
0
 70
   32
 71
    5
 72
    0
  3
Standard
 53
0
210
0
220
0
230
1
100
AcDbAlignedDimension
 13
156
 23
118
 33
0
 14
156
 24
94
 34
0
 50
90
100
AcDbRotatedDimension
  0
DIMENSION
  5
E8
100
AcDbEntity
  8
dimensions
  6
ByLayer
 62
  256
370
   -1
100
AcDbDimension
  2
*D10
 10
153
 20
15
 30
0
 11
148.3125
 21
7.500000000000001
 31
0
 70
   32
 71
    5
 72
    0
  3
Standard
 53
0
210
0
220
0
230
1
100
AcDbAlignedDimension
 13
156
 23
0
 33
0
 14
156
 24
15
 34
0
 50
90
100
AcDbRotatedDimension
  0
DIMENSION
  5
E9
100
AcDbEntity
  8
dimensions
  6
ByLayer
 62
  256
370
   -1
100
AcDbDimension
  2
*D11
 10
142
 20
48
 30
0
 11
137.3125
 21
38
 31
0
 70
   32
 71
    5
 72
    0
  3
Standard
 53
0
210
0
220
0
230
1
100
AcDbAlignedDimension
 13
156
 23
28
 33
0
 14
156
 24
48
 34
0
 50
90
100
AcDbRotatedDimension
  0
DIMENSION
  5
EA
100
AcDbEntity
  8
dimensions
  6
ByLayer
 62
  256
370
   -1
100
AcDbDimension
  2
*D12
 10
6.123233995736766e-17
 20
124
 30
0
 11
22.5
 21
128.6875
 31
0
 70
   32
 71
    5
 72
    0
  3
Standard
 53
0
210
0
220
0
230
1
100
AcDbAlignedDimension
 13
45
 23
123
 33
0
 14
0
 24
123
 34
0
100
AcDbRotatedDimension
  0
DIMENSION
  5
EB
100
AcDbEntity
  8
dimensions
  6
ByLayer
 62
  256
370
   -1
100
AcDbDimension
  2
*D13
 10
158
 20
124
 30
0
 11
141
 21
128.6875
 31
0
 70
   32
 71
    5
 72
    0
  3
Standard
 53
0
210
0
220
0
230
1
100
AcDbAlignedDimension
 13
124
 23
123
 33
0
 14
158
 24
123
 34
0
100
AcDbRotatedDimension
  0
DIMENSION
  5
EC
100
AcDbEntity
  8
dimensions
  6
ByLayer
 62
  256
370
   -1
100
AcDbDimension
  2
*D14
 10
158
 20
-15
 30
0
 11
151.5
 21
-19.6875
 31
0
 70
   32
 71
    5
 72
    0
  3
Standard
 53
0
210
0
220
0
230
1
100
AcDbAlignedDimension
 13
145
 23
-20
 33
0
 14
158
 24
-20
 34
0
100
AcDbRotatedDimension
  0
DIMENSION
  5
ED
100
AcDbEntity
  8
dimensions
  6
ByLayer
 62
  256
370
   -1
100
AcDbDimension
  2
*D15
 10
1.83697019872103e-16
 20
-8
 30
0
 11
7.5
 21
-12.6875
 31
0
 70
   32
 71
    5
 72
    0
  3
Standard
 53
0
210
0
220
0
230
1
100
AcDbAlignedDimension
 13
15
 23
-11
 33
0
 14
0
 24
-11
 34
0
100
AcDbRotatedDimension
  0
LINE
  5
EE
100
AcDbEntity
  8
drawing
  6
ByLayer
 62
  256
370
   -1
100
AcDbLine
 10
0
 20
0
 11
0
 21
118
  0
LINE
  5
EF
100
AcDbEntity
  8
drawing
  6
ByLayer
 62
  256
370
   -1
100
AcDbLine
 10
0
 20
118
 11
158
 21
118
  0
LINE
  5
F0
100
AcDbEntity
  8
drawing
  6
ByLayer
 62
  256
370
   -1
100
AcDbLine
 10
0
 20
0
 11
158
 21
0
  0
LINE
  5
F1
100
AcDbEntity
  8
drawing
  6
ByLayer
 62
  256
370
   -1
100
AcDbLine
 10
158
 20
0
 11
158
 21
118
  0
LINE
  5
F2
100
AcDbEntity
  8
drawing
  6
ByLayer
 62
  256
370
   -1
100
AcDbLine
 10
158
 20
15
 11
170
 21
15
  0
LINE
  5
F3
100
AcDbEntity
  8
drawing
  6
ByLayer
 62
  256
370
   -1
100
AcDbLine
 10
170
 20
15
 11
170
 21
28
  0
LINE
  5
F4
100
AcDbEntity
  8
drawing
  6
ByLayer
 62
  256
370
   -1
100
AcDbLine
 10
158
 20
28
 11
170
 21
28
  0
LINE
  5
F5
100
AcDbEntity
  8
drawing
  6
ByLayer
 62
  256
370
   -1
100
AcDbLine
 10
158
 20
48
 11
170
 21
48
  0
LINE
  5
F6
100
AcDbEntity
  8
drawing
  6
ByLayer
 62
  256
370
   -1
100
AcDbLine
 10
170
 20
48
 11
170
 21
61
  0
LINE
  5
F7
100
AcDbEntity
  8
drawing
  6
ByLayer
 62
  256
370
   -1
100
AcDbLine
 10
158
 20
61
 11
170
 21
61
  0
LINE
  5
F8
100
AcDbEntity
  8
drawing
  6
ByLayer
 62
  256
370
   -1
100
AcDbLine
 10
158
 20
81
 11
170
 21
81
  0
LINE
  5
F9
100
AcDbEntity
  8
drawing
  6
ByLayer
 62
  256
370
   -1
100
AcDbLine
 10
158
 20
94
 11
170
 21
94
  0
LINE
  5
FA
100
AcDbEntity
  8
drawing
  6
ByLayer
 62
  256
370
   -1
100
AcDbLine
 10
170
 20
81
 11
170
 21
94
  0
LINE
  5
FB
100
AcDbEntity
  8
drawing
  6
ByLayer
 62
  256
370
   -1
100
AcDbLine
 10
15
 20
-3
 11
145
 21
-3
  0
LINE
  5
FC
100
AcDbEntity
  8
drawing
  6
ByLayer
 62
  256
370
   -1
100
AcDbLine
 10
145
 20
-3
 11
147
 21
0
  0
LINE
  5
FD
100
AcDbEntity
  8
drawing
  6
ByLayer
 62
  256
370
   -1
100
AcDbLine
 10
15
 20
-3
 11
13
 21
0
  0
LINE
  5
FE
100
AcDbEntity
  8
drawing
  6
ByLayer
 62
  256
370
   -1
100
AcDbLine
 10
45
 20
121
 11
124
 21
121
  0
LINE
  5
FF
100
AcDbEntity
  8
drawing
  6
ByLayer
 62
  256
370
   -1
100
AcDbLine
 10
45
 20
118
 11
45
 21
121
  0
LINE
  5
100
100
AcDbEntity
  8
drawing
  6
ByLayer
 62
  256
370
   -1
100
AcDbLine
 10
124
 20
118
 11
124
 21
121
  0
DIMENSION
  5
101
100
AcDbEntity
  8
dimensions
  6
ByLayer
 62
  256
370
   -1
100
AcDbDimension
  2
*D16
 10
158
 20
137
 30
0
 11
79
 21
141.6875
 31
0
 70
   32
 71
    5
  3
Standard
 53
0
210
0
220
0
230
1
100
AcDbAlignedDimension
 13
0
 23
130
 33
0
 14
158
 24
130
 34
0
100
AcDbRotatedDimension
  0
ENDSEC
  0
SECTION
  2
OBJECTS
  0
DICTIONARY
  5
C
330
0
100
AcDbDictionary
281
    1
  3
ACAD_GROUP
350
D
  0
DICTIONARY
  5
D
330
C
100
AcDbDictionary
281
    1
  0
ENDSEC
  0
EOF
